HIERARCHY
ROOT reference
{
  OFFSET 0 0 0
  CHANNELS 6 Xposition Yposition Zposition Zrotation Xrotation Yrotation
  JOINT Hips
  {
    OFFSET 347.352 87.9396 215.108
    CHANNELS 3 Zrotation Xrotation Yrotation
    JOINT RightUpLeg
    {
      OFFSET -9.26448 -1.5905 0.0349838
      CHANNELS 3 Zrotation Xrotation Yrotation
      JOINT RightLeg
      {
        OFFSET 0.0309074 -41.8937 0.0182011
        CHANNELS 3 Zrotation Xrotation Yrotation
        JOINT RightFoot
        {
          OFFSET 0.355296 -42.3801 0.810868
          CHANNELS 3 Zrotation Xrotation Yrotation
          End Site
          {
            OFFSET 0 -7.69 17.5
          }
        }
      }
    }
    JOINT LeftUpLeg
    {
      OFFSET 9.27369 -1.59127 -0.0547904
      CHANNELS 3 Zrotation Xrotation Yrotation
      JOINT LeftLeg
      {
        OFFSET 0.0553589 -41.8938 0.0587288
        CHANNELS 3 Zrotation Xrotation Yrotation
        JOINT LeftFoot
        {
          OFFSET 0.217916 -41.5497 -0.688939
          CHANNELS 3 Zrotation Xrotation Yrotation
          End Site
          {
            OFFSET 0 -7.69 17.5
          }
        }
      }
    }
    JOINT Spine
    {
      OFFSET 0.0383554 14.2988 0.0402393
      CHANNELS 3 Zrotation Xrotation Yrotation
      JOINT Spine1
      {
        OFFSET 0.0188251 9.70742 0.0136471
        CHANNELS 3 Zrotation Xrotation Yrotation
        JOINT Spine2
        {
          OFFSET 0.0421292 10.115 0.0126686
          CHANNELS 3 Zrotation Xrotation Yrotation
          JOINT Spine3
          {
            OFFSET 0.0499826 9.71803 0.0151296
            CHANNELS 3 Zrotation Xrotation Yrotation
            JOINT Neck
            {
              OFFSET 0.04654 10.3867 0.0448026
              CHANNELS 3 Zrotation Xrotation Yrotation
              JOINT Head
              {
                OFFSET 0.0370611 9.47282 0.0189897
                CHANNELS 3 Zrotation Xrotation Yrotation
                End Site
                {
                  OFFSET 0 15.95 0
                }
              }
            }
            JOINT RightShoulder
            {
              OFFSET -3.19309 6.93146 -0.00624137
              CHANNELS 3 Zrotation Xrotation Yrotation
              JOINT RightArm
              {
                OFFSET -12.7764 0.00688168 -0.00548706
                CHANNELS 3 Zrotation Xrotation Yrotation
                JOINT RightForeArm
                {
                  OFFSET -26.5073 -0.0244096 0.0677859
                  CHANNELS 3 Zrotation Xrotation Yrotation
                  JOINT RightHand
                  {
                    OFFSET -26.0056 -0.000416843 0.0508974
                    CHANNELS 3 Zrotation Xrotation Yrotation
                    JOINT RightHandThumb1
                    {
                      OFFSET -2.48905 0.190105 3.12053
                      CHANNELS 3 Zrotation Xrotation Yrotation
                      JOINT RightHandThumb2
                      {
                        OFFSET -3.68274 0 0
                        CHANNELS 3 Zrotation Xrotation Yrotation
                        JOINT RightHandThumb3
                        {
                          OFFSET -2.55832 0 0
                          CHANNELS 3 Zrotation Xrotation Yrotation
                          End Site
                          {
                            OFFSET -2.194 0 0
                          }
                        }
                      }
                    }
                    JOINT RightInHandIndex
                    {
                      OFFSET -3.22368 0.508421 1.97842
                      CHANNELS 3 Zrotation Xrotation Yrotation
                      JOINT RightHandIndex1
                      {
                        OFFSET -5.21684 -0.091368 0.999158
                        CHANNELS 3 Zrotation Xrotation Yrotation
                        JOINT RightHandIndex2
                        {
                          OFFSET -3.61937 0 0
                          CHANNELS 3 Zrotation Xrotation Yrotation
                          JOINT RightHandIndex3
                          {
                            OFFSET -2.0521 0 0
                            CHANNELS 3 Zrotation Xrotation Yrotation
                            End Site
                            {
                              OFFSET -1.805 0 0
                            }
                          }
                        }
                      }
                    }
                    JOINT RightInHandMiddle
                    {
                      OFFSET -3.38211 0.517263 0.756737
                      CHANNELS 3 Zrotation Xrotation Yrotation
                      JOINT RightHandMiddle1
                      {
                        OFFSET -5.17411 -0.084 0.313895
                        CHANNELS 3 Zrotation Xrotation Yrotation
                        JOINT RightHandMiddle2
                        {
                          OFFSET -3.94947 0 0
                          CHANNELS 3 Zrotation Xrotation Yrotation
                          JOINT RightHandMiddle3
                          {
                            OFFSET -2.47579 0 0
                            CHANNELS 3 Zrotation Xrotation Yrotation
                            End Site
                            {
                              OFFSET -1.975 0 0
                            }
                          }
                        }
                      }
                    }
                    JOINT RightInHandRing
                    {
                      OFFSET -3.36516 0.537895 -0.128947
                      CHANNELS 3 Zrotation Xrotation Yrotation
                      JOINT RightHandRing1
                      {
                        OFFSET -4.63474 -0.022105 -0.478947
                        CHANNELS 3 Zrotation Xrotation Yrotation
                        JOINT RightHandRing2
                        {
                          OFFSET -3.44238 0 0
                          CHANNELS 3 Zrotation Xrotation Yrotation
                          JOINT RightHandRing3
                          {
                            OFFSET -2.3881 0 0
                            CHANNELS 3 Zrotation Xrotation Yrotation
                            End Site
                            {
                              OFFSET -1.857 0 0
                            }
                          }
                        }
                      }
                    }
                    JOINT RightInHandPinky
                    {
                      OFFSET -3.16105 0.469368 -1.20179
                      CHANNELS 3 Zrotation Xrotation Yrotation
                      JOINT RightHandPinky1
                      {
                        OFFSET -4.14105 -0.022105 -1.09053
                        CHANNELS 3 Zrotation Xrotation Yrotation
                        JOINT RightHandPinky2
                        {
                          OFFSET -2.75653 0 0
                          CHANNELS 3 Zrotation Xrotation Yrotation
                          JOINT RightHandPinky3
                          {
                            OFFSET -1.74189 0 0
                            CHANNELS 3 Zrotation Xrotation Yrotation
                            End Site
                            {
                              OFFSET -1.645 0 0
                            }
                          }
                        }
                      }
                    }
                  }
                }
              }
            }
            JOINT LeftShoulder
            {
              OFFSET 3.25131 6.94393 -0.0111894
              CHANNELS 3 Zrotation Xrotation Yrotation
              JOINT LeftArm
              {
                OFFSET 12.7762 -0.0164608 -0.057961
                CHANNELS 3 Zrotation Xrotation Yrotation
                JOINT LeftForeArm
                {
                  OFFSET 26.494 -0.0292415 -0.00751187
                  CHANNELS 3 Zrotation Xrotation Yrotation
                  JOINT LeftHand
                  {
                    OFFSET 26.0005 -0.052199 0.00178648
                    CHANNELS 3 Zrotation Xrotation Yrotation
                    JOINT LeftHandThumb1
                    {
                      OFFSET 2.48905 0.190105 3.12053
                      CHANNELS 3 Zrotation Xrotation Yrotation
                      JOINT LeftHandThumb2
                      {
                        OFFSET 3.68274 0 0
                        CHANNELS 3 Zrotation Xrotation Yrotation
                        JOINT LeftHandThumb3
                        {
                          OFFSET 2.55832 0 0
                          CHANNELS 3 Zrotation Xrotation Yrotation
                          End Site
                          {
                            OFFSET 2.194 0 0
                          }
                        }
                      }
                    }
                    JOINT LeftInHandIndex
                    {
                      OFFSET 3.22368 0.508421 1.97842
                      CHANNELS 3 Zrotation Xrotation Yrotation
                      JOINT LeftHandIndex1
                      {
                        OFFSET 5.21684 -0.091368 0.999158
                        CHANNELS 3 Zrotation Xrotation Yrotation
                        JOINT LeftHandIndex2
                        {
                          OFFSET 3.61937 0 0
                          CHANNELS 3 Zrotation Xrotation Yrotation
                          JOINT LeftHandIndex3
                          {
                            OFFSET 2.0521 0 0
                            CHANNELS 3 Zrotation Xrotation Yrotation
                            End Site
                            {
                              OFFSET 1.805 0 0
                            }
                          }
                        }
                      }
                    }
                    JOINT LeftInHandMiddle
                    {
                      OFFSET 3.38211 0.517263 0.756737
                      CHANNELS 3 Zrotation Xrotation Yrotation
                      JOINT LeftHandMiddle1
                      {
                        OFFSET 5.17411 -0.084 0.313895
                        CHANNELS 3 Zrotation Xrotation Yrotation
                        JOINT LeftHandMiddle2
                        {
                          OFFSET 3.94947 0 0
                          CHANNELS 3 Zrotation Xrotation Yrotation
                          JOINT LeftHandMiddle3
                          {
                            OFFSET 2.47579 0 0
                            CHANNELS 3 Zrotation Xrotation Yrotation
                            End Site
                            {
                              OFFSET 1.975 0 0
                            }
                          }
                        }
                      }
                    }
                    JOINT LeftInHandRing
                    {
                      OFFSET 3.36516 0.537895 -0.128947
                      CHANNELS 3 Zrotation Xrotation Yrotation
                      JOINT LeftHandRing1
                      {
                        OFFSET 4.63474 -0.022105 -0.478947
                        CHANNELS 3 Zrotation Xrotation Yrotation
                        JOINT LeftHandRing2
                        {
                          OFFSET 3.44238 0 0
                          CHANNELS 3 Zrotation Xrotation Yrotation
                          JOINT LeftHandRing3
                          {
                            OFFSET 2.3881 0 0
                            CHANNELS 3 Zrotation Xrotation Yrotation
                            End Site
                            {
                              OFFSET 1.857 0 0
                            }
                          }
                        }
                      }
                    }
                    JOINT LeftInHandPinky
                    {
                      OFFSET 3.16105 0.469368 -1.20179
                      CHANNELS 3 Zrotation Xrotation Yrotation
                      JOINT LeftHandPinky1
                      {
                        OFFSET 4.14105 -0.022105 -1.09053
                        CHANNELS 3 Zrotation Xrotation Yrotation
                        JOINT LeftHandPinky2
                        {
                          OFFSET 2.75653 0 0
                          CHANNELS 3 Zrotation Xrotation Yrotation
                          JOINT LeftHandPinky3
                          {
                            OFFSET 1.74189 0 0
                            CHANNELS 3 Zrotation Xrotation Yrotation
                            End Site
                            {
                              OFFSET 1.645 0 0
                            }
                          }
                        }
                      }
                    }
                  }
                }
              }
            }
          }
        }
      }
    }
  }
}
MOTION
Frames: 2
Frame Time: 0.00833333
2.250000000000000000e+03 0.000000000000000000e+00 0.000000000000000000e+00 0.000000000000000000e+00 0.000000000000000000e+00 0.000000000000000000e+00 2.795209999999999795e+01 1.283150000000000013e+01 -6.641320000000000334e+01 -3.379149999999999210e+01 -5.041200000000000614e+01 -4.070070000000000476e+01 6.479700000000001570e-01 2.499529999999999674e+01 -7.694130000000000358e+00 1.154089999999999883e+01 4.699139999999998984e+00 2.126729999999999876e+01 1.915020000000000167e+01 -4.958480000000000132e+01 6.973099999999999632e+00 1.547760000000000247e+00 2.986410000000000053e+01 -1.944659999999999833e+00 -1.517419999999999902e+01 -9.718880000000002184e+00 -1.676000000000000156e+01 -1.284299999999999997e+01 9.126210000000000377e+00 1.990080000000000382e+01 -2.930369999999999919e+00 3.027989999999999959e+00 4.701849999999999419e+00 -4.803210000000000868e+00 5.083020000000001204e+00 7.388939999999998953e+00 2.889770000000000394e-01 -5.450859999999999594e-01 -8.828979999999999606e-01 2.893780000000001906e-01 -5.437039999999999651e-01 -8.869530000000001024e-01 4.103559999999998986e+00 -1.020240000000000080e+01 -1.591639999999999766e+01 5.282090000000001062e+00 -1.490540000000000198e+01 1.285989999999999966e+01 7.111899999999999977e+01 2.438270000000001048e+00 5.226200000000000045e+01 1.078409999999999869e+01 -5.035569999999999879e+01 -8.943579999999986541e-01 1.655390000000000228e+01 -2.707430000000000092e+01 -2.277110000000000056e+01 2.818400000000000105e+01 1.072940000000000005e+01 1.915919999999999845e+01 5.477810000000000554e-15 -5.565969999999999999e-15 -1.000000000000000000e+01 -8.141690000000000761e-15 -9.541660000000000512e-15 -1.000000000000000000e+01 3.180550000000000771e-15 6.361109999999999741e-15 0.000000000000000000e+00 1.998179999999999978e+01 8.718970000000000331e-01 2.396399999999999864e+00 2.400000000000000000e+01 5.565969999999999999e-15 2.544439999999999986e-14 2.000000000000000000e+01 -5.168399999999999338e-15 -6.361109999999999741e-15 3.180550000000000771e-15 6.361109999999999741e-15 0.000000000000000000e+00 2.000000000000000000e+01 -3.180550000000001560e-15 -3.180549999999997615e-15 2.400000000000000000e+01 -5.565969999999999999e-15 3.180549999999991304e-15 2.000000000000000000e+01 1.630030000000000023e-14 6.361109999999996586e-15 3.180550000000000771e-15 6.361109999999999741e-15 0.000000000000000000e+00 1.997479999999999833e+01 -1.025649999999999951e+00 -2.819380000000000219e+00 2.400000000000000000e+01 -1.590279999999999485e-15 -9.541660000000002090e-15 2.000000000000000000e+01 -7.156249999999999484e-15 -9.541660000000000512e-15 3.180550000000000771e-15 6.361109999999999741e-15 0.000000000000000000e+00 1.978150000000000119e+01 -3.009479999999999933e+00 -8.305149999999999366e+00 2.400000000000000000e+01 -6.361109999999998952e-15 6.361109999999999741e-15 2.000000000000000000e+01 3.876300000000000293e-15 3.180549999999999193e-15 1.703200000000000358e+01 -1.433280000000000065e+01 -3.149269999999999570e+01 -4.062110000000000554e+01 3.559810000000000230e+01 -7.086490000000001999e+01 1.981900000000000261e+01 -7.792220000000000368e+01 1.938799999999999812e+01 -2.947500000000000142e+01 -1.643070000000000164e+01 8.234339999999999549e+00 -2.818400000000000105e+01 1.072940000000000005e+01 -1.915919999999999845e+01 -5.337599999999999011e-15 -6.361109999999998952e-15 1.000000000000000000e+01 -3.510029999999998386e-15 1.590279999999999485e-15 1.000000000000000000e+01 4.770830000000000256e-15 -9.541659999999998934e-15 3.180549999999999982e-15 -1.998179999999999978e+01 8.718970000000000331e-01 -2.396399999999999864e+00 -2.400000000000000000e+01 7.951389999999999226e-16 -1.272219999999999835e-14 -2.000000000000000000e+01 3.180549999999998799e-15 3.180550000000000771e-15 4.770830000000000256e-15 -9.541659999999998934e-15 3.180549999999999982e-15 -2.000000000000000000e+01 1.431250000000000212e-14 1.590280000000000116e-14 -2.400000000000000000e+01 6.758679999999999612e-15 6.361109999999998163e-15 -2.000000000000000000e+01 1.272219999999999993e-14 -1.272220000000000466e-14 4.770830000000000256e-15 -9.541659999999998934e-15 3.180549999999999982e-15 -1.997479999999999833e+01 -1.025649999999999951e+00 2.819380000000000219e+00 -2.400000000000000000e+01 3.975689999999999725e-15 1.590280000000000116e-14 -2.000000000000000000e+01 0.000000000000000000e+00 -9.541660000000000512e-15 4.770830000000000256e-15 -9.541659999999998934e-15 3.180549999999999982e-15 -1.978150000000000119e+01 -3.009479999999999933e+00 8.305149999999999366e+00 -2.400000000000000000e+01 1.351739999999999991e-14 -3.180549999999999193e-15 -2.000000000000000000e+01 -9.541660000000000512e-15 9.541659999999997356e-15
2.250000000000000000e+03 0.000000000000000000e+00 0.000000000000000000e+00 0.000000000000000000e+00 0.000000000000000000e+00 0.000000000000000000e+00 2.795039999999999836e+01 1.282830000000000048e+01 -6.643350000000000932e+01 -3.377830000000000155e+01 -5.042969999999999686e+01 -4.064639999999999986e+01 6.423090000000000188e-01 2.501219999999999999e+01 -7.716460000000001429e+00 1.155020000000000024e+01 4.699139999999999873e+00 2.126729999999999876e+01 1.917160000000000153e+01 -4.956609999999999872e+01 7.020879999999999121e+00 1.557560000000000056e+00 2.982949999999999946e+01 -1.966399999999999704e+00 -1.518019999999999925e+01 -9.684929999999999595e+00 -1.675829999999999842e+01 -1.284619999999999962e+01 9.125070000000000903e+00 1.992089999999999961e+01 -2.930369999999999919e+00 3.027989999999999515e+00 4.701849999999999419e+00 -4.803939999999999877e+00 5.082919999999999661e+00 7.397190000000000154e+00 2.889770000000000394e-01 -5.450859999999998484e-01 -8.828979999999999606e-01 2.893780000000000241e-01 -5.437039999999999651e-01 -8.869529999999992143e-01 4.104680000000000106e+00 -1.019740000000000180e+01 -1.590980000000000061e+01 5.303759999999999586e+00 -1.490600000000000058e+01 1.286379999999999768e+01 7.112890000000001578e+01 2.443049999999999500e+00 5.224699999999999989e+01 1.079729999999999990e+01 -5.032999999999999829e+01 -8.598149999999993298e-01 1.656019999999999825e+01 -2.709280000000000044e+01 -2.277209999999999823e+01 2.818400000000000105e+01 1.072940000000000005e+01 1.915919999999999845e+01 1.614810000000000063e-14 0.000000000000000000e+00 -1.000000000000000000e+01 2.949209999999999658e-15 -1.590279999999999682e-15 -1.000000000000000000e+01 0.000000000000000000e+00 3.180549999999999982e-15 1.590279999999999485e-15 1.998179999999999978e+01 8.718970000000000331e-01 2.396399999999999864e+00 2.400000000000000000e+01 -2.385420000000000805e-15 1.590280000000000116e-14 2.000000000000000000e+01 -3.578119999999999853e-15 9.541660000000003667e-15 0.000000000000000000e+00 3.180549999999999982e-15 1.590279999999999485e-15 2.000000000000000000e+01 -1.272219999999999993e-14 0.000000000000000000e+00 2.400000000000000000e+01 -2.385420000000000017e-15 0.000000000000000000e+00 2.000000000000000000e+01 1.868579999999999925e-14 1.908329999999999831e-14 0.000000000000000000e+00 3.180549999999999982e-15 1.590279999999999485e-15 1.997479999999999833e+01 -1.025649999999999951e+00 -2.819380000000000219e+00 2.400000000000000000e+01 1.590280000000000274e-15 3.180549999999997615e-15 2.000000000000000000e+01 -6.361109999999999741e-15 0.000000000000000000e+00 0.000000000000000000e+00 3.180549999999999982e-15 1.590279999999999485e-15 1.978150000000000119e+01 -3.009479999999999933e+00 -8.305149999999999366e+00 2.400000000000000000e+01 4.770830000000000256e-15 6.361109999999999741e-15 2.000000000000000000e+01 1.093320000000000182e-15 0.000000000000000000e+00 1.703849999999999909e+01 -1.433130000000000237e+01 -3.150310000000000343e+01 -4.069829999999999615e+01 3.559790000000000276e+01 -7.079579999999998563e+01 1.970749999999999602e+01 -7.785110000000001662e+01 1.927169999999999916e+01 -2.948870000000000147e+01 -1.643090000000000117e+01 8.228760000000001185e+00 -2.818400000000000105e+01 1.072940000000000005e+01 -1.915919999999999845e+01 3.297259999999999072e-15 -9.541660000000000512e-15 1.000000000000000000e+01 -3.790440000000001694e-15 3.180549999999999193e-15 1.000000000000000000e+01 9.541660000000000512e-15 -6.361109999999998163e-15 -3.180549999999999587e-15 -1.998179999999999978e+01 8.718970000000000331e-01 -2.396399999999999864e+00 -2.400000000000000000e+01 -3.180549999999999587e-15 -1.908330000000000462e-14 -2.000000000000000000e+01 3.180549999999999587e-15 -9.541660000000002090e-15 9.541660000000000512e-15 -6.361109999999998163e-15 -3.180549999999999587e-15 -2.000000000000000000e+01 1.113189999999999773e-14 3.180550000000000771e-15 -2.400000000000000000e+01 5.565969999999999999e-15 0.000000000000000000e+00 -2.000000000000000000e+01 4.770830000000000256e-15 -2.862499999999999793e-14 9.541660000000000512e-15 -6.361109999999998163e-15 -3.180549999999999587e-15 -1.997479999999999833e+01 -1.025649999999999951e+00 2.819380000000000219e+00 -2.400000000000000000e+01 1.590279999999999682e-15 3.180550000000000771e-15 -2.000000000000000000e+01 3.180549999999999587e-15 -1.590280000000000116e-14 9.541660000000000512e-15 -6.361109999999998163e-15 -3.180549999999999587e-15 -1.978150000000000119e+01 -3.009479999999999933e+00 8.305149999999999366e+00 -2.400000000000000000e+01 1.033680000000000025e-14 -6.361109999999999741e-15 -2.000000000000000000e+01 -3.180549999999999982e-15 -3.180549999999999193e-15
